<svg width="36" height="36" viewBox="0 0 36 36" fill="none" xmlns="http://www.w3.org/2000/svg">
<circle cx="18" cy="18" r="18" fill="#F16F70"/>
<g clip-path="url(#clip0)">
<path d="M9.96823 23.232C11.0961 24.9414 12.2263 26.6508 13.3542 28.3603C13.737 28.9407 14.3358 29.2707 15.036 29.1751C15.3399 29.1342 15.5921 29.0295 15.8352 28.8383C16.1504 28.5924 16.2855 28.3238 16.4408 27.9505C16.4813 27.8549 16.5219 27.7571 16.5601 27.6615C16.5038 27.798 16.4476 27.9323 16.389 28.0689C18.4175 23.2251 20.8264 18.5453 23.5933 14.0907C24.3813 12.8229 25.1985 11.5733 26.0427 10.3418C26.2814 9.99357 26.3197 9.41997 26.2138 9.02619C26.1058 8.63013 25.8041 8.19992 25.4371 8.00645C24.5749 7.54665 23.6653 7.83346 23.1273 8.61875C20.106 13.0278 17.4382 17.6849 15.1666 22.5332C14.4686 24.0195 13.8158 25.5264 13.1854 27.0446C14.2142 26.908 15.2431 26.7737 16.272 26.6372C15.1418 24.9255 14.0139 23.2183 12.8837 21.5089C12.3929 20.7668 11.3708 20.3753 10.5738 20.8966C9.84441 21.3723 9.44367 22.4376 9.96823 23.232Z" fill="white"/>
</g>
<defs>
<clipPath id="clip0">
<rect width="16.5405" height="21.4054" fill="white" transform="translate(9.73004 7.78361)"/>
</clipPath>
</defs>
</svg>
